<svg id="Capa_1" data-name="Capa 1" xmlns="http://www.w3.org/2000/svg" xmlns:xlink="http://www.w3.org/1999/xlink" viewBox="0 0 82.89 83"><defs><style>.cls-1{fill:url(#linear-gradient);}.cls-2{fill:none;}.cls-3,.cls-4{fill:#fff;}.cls-3{opacity:0.3;isolation:isolate;}</style><linearGradient id="linear-gradient" x1="-1105.45" y1="338.31" x2="-1105.45" y2="337.31" gradientTransform="matrix(80, 0, 0, -80, 88477.94, 27066.5)" gradientUnits="userSpaceOnUse"><stop offset="0" stop-color="#514d94"/><stop offset="1" stop-color="#5995a9"/></linearGradient></defs><title>Building</title><g id="Ellipse_218-2" data-name="Ellipse 218-2"><circle class="cls-1" cx="41.59" cy="41.94" r="40"/><circle class="cls-2" cx="41.59" cy="41.94" r="39.5"/></g><g id="Group_1829" data-name="Group 1829"><g id="Group_1814" data-name="Group 1814"><path id="Path_829" data-name="Path 829" class="cls-3" d="M51.41,43.3V57.92h1.44v3.87h5.09V34.89H51.41V28.47H38.12V43.3h6.54V38.65h6.75Z"/></g><g id="Group_1815" data-name="Group 1815"><g id="skyline"><g id="Group_196" data-name="Group 196"><g id="Group_195" data-name="Group 195"><path id="Path_159" data-name="Path 159" class="cls-4" d="M23.58,61.1h1.16V24.86a.69.69,0,0,1,.69-.69H38.36a.69.69,0,0,1,.69.69h0v3h1.38v-3a.69.69,0,0,1,.7-.69h3V22.09a.69.69,0,1,1,1.38,0v2.08h3a.69.69,0,0,1,.69.69h0v3h2.08a.69.69,0,0,1,.7.69h0v5.77h5.77a.69.69,0,0,1,.69.7h0V61.1h1.15a.69.69,0,1,1,0,1.38h-36a.69.69,0,0,1,0-1.38h0ZM47.82,25.56h-6v2.3h6ZM50.13,61.1h.45V59.94a.7.7,0,0,1,1.39,0V61.1h.46V58.79h-2.3ZM45.51,43.33V61.1h3.23v-3a.69.69,0,0,1,.69-.7h3.7a.69.69,0,0,1,.69.69h0v3h3.23V35.71H45.51Zm-.69-9h5.76V29.25H39.05V42.63h5.08v-2.3H42.05a.7.7,0,0,1,0-1.39h2.08V36.63H42.05a.69.69,0,0,1,0-1.38h2.08V35a.69.69,0,0,1,.69-.69ZM32.58,61.1H44.13V44H32.58Zm-6.46,0H31.2V42.4a.69.69,0,0,1,1.38,0h0v.23H34V42.4a.69.69,0,1,1,1.38,0v.23h2.31V25.56H26.13V61.1Z"/><path id="Path_160" data-name="Path 160" class="cls-4" d="M41.13,59.71a.69.69,0,0,1-.7-.69V46.09a.7.7,0,0,1,1.39,0V59a.69.69,0,0,1-.69.69Z"/><path id="Path_161" data-name="Path 161" class="cls-4" d="M38.36,59.71a.69.69,0,0,1-.69-.69V46.09a.69.69,0,0,1,1.38,0V59a.69.69,0,0,1-.69.69Z"/><path id="Path_162" data-name="Path 162" class="cls-4" d="M35.59,59.71A.69.69,0,0,1,34.9,59V46.09a.69.69,0,0,1,1.38,0V59a.69.69,0,0,1-.69.69Z"/><path id="Path_163" data-name="Path 163" class="cls-4" d="M34.67,30.17a.69.69,0,0,1-.7-.69v-.92a.7.7,0,1,1,1.39,0v.92a.69.69,0,0,1-.69.69Z"/><path id="Path_164" data-name="Path 164" class="cls-4" d="M31.9,30.17a.69.69,0,0,1-.7-.69v-.92a.7.7,0,1,1,1.39,0v.92a.69.69,0,0,1-.69.69Z"/><path id="Path_165" data-name="Path 165" class="cls-4" d="M29.13,30.17a.69.69,0,0,1-.7-.69v-.92a.7.7,0,1,1,1.39,0v.92a.69.69,0,0,1-.69.69Z"/><path id="Path_166" data-name="Path 166" class="cls-4" d="M34.67,34.79a.7.7,0,0,1-.7-.7v-.92a.7.7,0,0,1,1.39,0v.92a.69.69,0,0,1-.69.7Z"/><path id="Path_167" data-name="Path 167" class="cls-4" d="M31.9,34.79a.7.7,0,0,1-.7-.7v-.92a.7.7,0,0,1,1.39,0v.92a.69.69,0,0,1-.69.7Z"/><path id="Path_168" data-name="Path 168" class="cls-4" d="M29.13,34.79a.7.7,0,0,1-.7-.7v-.92a.7.7,0,0,1,1.39,0v.92a.69.69,0,0,1-.69.7Z"/><path id="Path_169" data-name="Path 169" class="cls-4" d="M34.67,39.4a.69.69,0,0,1-.7-.69v-.93a.7.7,0,0,1,1.39,0h0v.93a.69.69,0,0,1-.69.69Z"/><path id="Path_170" data-name="Path 170" class="cls-4" d="M31.9,39.4a.69.69,0,0,1-.7-.69v-.93a.7.7,0,0,1,1.39,0h0v.93a.69.69,0,0,1-.69.69Z"/><path id="Path_171" data-name="Path 171" class="cls-4" d="M29.13,39.4a.69.69,0,0,1-.7-.69v-.93a.7.7,0,0,1,1.39,0h0v.93a.69.69,0,0,1-.69.69Z"/><path id="Path_172" data-name="Path 172" class="cls-4" d="M54.05,41.25a.69.69,0,0,1-.69-.69h0v-.93a.69.69,0,1,1,1.38,0v.93a.69.69,0,0,1-.69.69Z"/><path id="Path_173" data-name="Path 173" class="cls-4" d="M51.28,41.25a.69.69,0,0,1-.69-.69h0v-.93a.69.69,0,0,1,1.38,0v.93a.69.69,0,0,1-.69.69Z"/><path id="Path_174" data-name="Path 174" class="cls-4" d="M48.51,41.25a.69.69,0,0,1-.69-.69h0v-.93a.69.69,0,1,1,1.38,0v.93a.69.69,0,0,1-.69.69Z"/><path id="Path_175" data-name="Path 175" class="cls-4" d="M54.05,45.86a.69.69,0,0,1-.69-.69v-.92a.69.69,0,1,1,1.38,0v.92a.69.69,0,0,1-.69.69Z"/><path id="Path_176" data-name="Path 176" class="cls-4" d="M51.28,45.86a.69.69,0,0,1-.69-.69v-.92a.69.69,0,0,1,1.38,0v.92a.69.69,0,0,1-.69.69Z"/><path id="Path_177" data-name="Path 177" class="cls-4" d="M48.51,45.86a.69.69,0,0,1-.69-.69v-.92a.69.69,0,1,1,1.38,0v.92a.69.69,0,0,1-.69.69Z"/><path id="Path_178" data-name="Path 178" class="cls-4" d="M54.05,50.48a.69.69,0,0,1-.69-.69v-.92a.69.69,0,1,1,1.38,0v.92a.69.69,0,0,1-.69.69Z"/><path id="Path_179" data-name="Path 179" class="cls-4" d="M51.28,50.48a.69.69,0,0,1-.69-.69v-.92a.69.69,0,1,1,1.38,0v.92a.69.69,0,0,1-.69.69Z"/><path id="Path_180" data-name="Path 180" class="cls-4" d="M48.51,50.48a.69.69,0,0,1-.69-.69v-.92a.69.69,0,1,1,1.38,0v.92a.69.69,0,0,1-.69.69Z"/><path id="Path_181" data-name="Path 181" class="cls-4" d="M54.05,55.1a.69.69,0,0,1-.69-.7v-.92a.69.69,0,1,1,1.38,0v.92a.69.69,0,0,1-.69.7Z"/><path id="Path_182" data-name="Path 182" class="cls-4" d="M51.28,55.1a.69.69,0,0,1-.69-.7v-.92a.69.69,0,1,1,1.38,0v.92a.69.69,0,0,1-.69.7Z"/><path id="Path_183" data-name="Path 183" class="cls-4" d="M48.51,55.1a.69.69,0,0,1-.69-.7v-.92a.69.69,0,1,1,1.38,0v.92a.69.69,0,0,1-.69.7Z"/><path id="Path_184" data-name="Path 184" class="cls-4" d="M29.13,44a.69.69,0,0,1-.7-.69V42.4a.7.7,0,0,1,1.39,0v.93a.69.69,0,0,1-.69.69Z"/><path id="Path_185" data-name="Path 185" class="cls-4" d="M29.13,48.63a.69.69,0,0,1-.7-.69V47a.7.7,0,0,1,1.39,0v.92a.69.69,0,0,1-.69.69Z"/><path id="Path_186" data-name="Path 186" class="cls-4" d="M29.13,53.25a.69.69,0,0,1-.7-.69v-.93a.7.7,0,0,1,1.39,0v.93a.69.69,0,0,1-.69.69Z"/><path id="Path_187" data-name="Path 187" class="cls-4" d="M29.13,57.87a.7.7,0,0,1-.7-.7v-.92a.7.7,0,0,1,1.39,0h0v.92a.7.7,0,0,1-.69.7Z"/><path id="Path_188" data-name="Path 188" class="cls-4" d="M41.36,32.25a.69.69,0,0,1,.69-.69h5.54a.69.69,0,0,1,0,1.38H42.05a.69.69,0,0,1-.69-.69Z"/></g></g></g><path id="Path_830" data-name="Path 830" class="cls-3" d="M25.32,25l13.1,17.27V25Z"/></g></g></svg>