<svg id="Layer_1" data-name="Layer 1" xmlns="http://www.w3.org/2000/svg" viewBox="0 0 18 19"><defs><style>.cls-1{fill:none;stroke:#5ea8b0;stroke-width:0.75px;}.cls-2{fill:#5ea8b0;}</style></defs><title>Artboard 56</title><circle class="cls-1" cx="8.5" cy="9.5" r="7.12"/><path id="Path_343-2" data-name="Path 343-2" class="cls-2" d="M8.38,6.11A.33.33,0,0,1,8.63,6a.36.36,0,0,1,.25.11l2.27,2.26a.37.37,0,0,1-.07.5.35.35,0,0,1-.43,0L9,7.21v4.94a.36.36,0,1,1-.72,0h0V7.22L6.61,8.88a.35.35,0,0,1-.5.07A.37.37,0,0,1,6,8.45l.07-.07Z"/></svg>